<svg width="513" height="125" viewBox="0 0 513 125" fill="none" xmlns="http://www.w3.org/2000/svg">
<path d="M171.134 66.1598L155.207 67.1399C154.934 65.7786 154.349 64.5535 153.451 63.4645C152.552 62.3482 151.368 61.4634 149.898 60.81C148.455 60.1294 146.726 59.7891 144.711 59.7891C142.016 59.7891 139.743 60.3608 137.891 61.5043C136.04 62.6205 135.114 64.1179 135.114 65.9964C135.114 67.4938 135.713 68.7598 136.911 69.7944C138.109 70.829 140.165 71.6593 143.078 72.2855L154.431 74.5724C160.529 75.8248 165.076 77.8395 168.071 80.6165C171.065 83.3935 172.563 87.0417 172.563 91.5611C172.563 95.6721 171.351 99.2795 168.928 102.383C166.532 105.487 163.238 107.91 159.045 109.652C154.88 111.368 150.075 112.225 144.63 112.225C136.326 112.225 129.71 110.496 124.782 107.039C119.882 103.554 117.009 98.8166 116.165 92.8271L133.277 91.9286C133.794 94.4606 135.046 96.3936 137.034 97.7276C139.021 99.0344 141.567 99.6879 144.67 99.6879C147.72 99.6879 150.17 99.1025 152.021 97.9318C153.9 96.7339 154.853 95.1957 154.88 93.3171C154.853 91.738 154.186 90.4448 152.879 89.4375C151.572 88.4029 149.557 87.6134 146.835 87.0689L135.972 84.9045C129.846 83.6793 125.286 81.5558 122.291 78.5337C119.324 75.5117 117.84 71.6593 117.84 66.9766C117.84 62.9472 118.929 59.476 121.107 56.5629C123.312 53.6497 126.402 51.4036 130.377 49.8246C134.379 48.2455 139.062 47.456 144.425 47.456C152.348 47.456 158.583 49.1303 163.129 52.479C167.703 55.8278 170.371 60.388 171.134 66.1598ZM211.859 112.225C205.434 112.225 199.907 110.864 195.279 108.141C190.678 105.392 187.139 101.58 184.661 96.7067C182.211 91.8333 180.986 86.2249 180.986 79.8814C180.986 73.4562 182.224 67.8205 184.702 62.9744C187.207 58.1011 190.76 54.3031 195.361 51.5806C199.962 48.8308 205.434 47.456 211.778 47.456C217.25 47.456 222.042 48.4497 226.153 50.4371C230.264 52.4246 233.517 55.2152 235.913 58.8089C238.309 62.4027 239.629 66.6226 239.874 71.4688H223.457C222.994 68.3378 221.769 65.8195 219.782 63.9137C217.822 61.9807 215.249 61.0142 212.063 61.0142C209.368 61.0142 207.013 61.7493 204.998 63.2195C203.011 64.6624 201.459 66.7724 200.343 69.5494C199.227 72.3263 198.669 75.6887 198.669 79.6364C198.669 83.6385 199.213 87.0417 200.302 89.8459C201.418 92.6501 202.984 94.7873 204.998 96.2575C207.013 97.7276 209.368 98.4627 212.063 98.4627C214.051 98.4627 215.834 98.0543 217.413 97.2376C219.02 96.4208 220.34 95.2365 221.375 93.6847C222.436 92.1056 223.131 90.2134 223.457 88.0082H239.874C239.602 92.7998 238.295 97.0198 235.954 100.668C233.64 104.289 230.441 107.12 226.357 109.162C222.273 111.204 217.44 112.225 211.859 112.225ZM268.9 112.184C264.898 112.184 261.331 111.49 258.2 110.102C255.069 108.686 252.592 106.603 250.768 103.853C248.971 101.076 248.072 97.6187 248.072 93.4805C248.072 89.9956 248.712 87.0689 249.992 84.7003C251.271 82.3317 253.014 80.4259 255.219 78.983C257.424 77.54 259.929 76.451 262.733 75.7159C265.565 74.9808 268.532 74.4635 271.636 74.1641C275.284 73.7829 278.225 73.429 280.457 73.1023C282.69 72.7483 284.309 72.2311 285.317 71.5504C286.324 70.8698 286.828 69.8625 286.828 68.5284V68.2834C286.828 65.697 286.011 63.6959 284.377 62.2802C282.771 60.8645 280.484 60.1566 277.517 60.1566C274.386 60.1566 271.895 60.8509 270.043 62.2393C268.192 63.6006 266.967 65.3158 266.368 67.3849L250.278 66.0781C251.094 62.2666 252.701 58.9723 255.097 56.1953C257.492 53.3911 260.583 51.2403 264.367 49.7429C268.178 48.2183 272.589 47.456 277.598 47.456C281.083 47.456 284.418 47.8643 287.604 48.6811C290.816 49.4979 293.661 50.7638 296.139 52.479C298.644 54.1942 300.617 56.3995 302.06 59.0948C303.503 61.7629 304.225 64.9619 304.225 68.6918V111H287.726V102.301H287.236C286.229 104.262 284.881 105.991 283.193 107.488C281.505 108.958 279.477 110.115 277.108 110.959C274.74 111.776 272.004 112.184 268.9 112.184ZM273.882 100.178C276.441 100.178 278.701 99.6742 280.661 98.6669C282.621 97.6323 284.16 96.2438 285.276 94.5014C286.392 92.759 286.95 90.7852 286.95 88.5799V81.9233C286.406 82.2772 285.657 82.6039 284.704 82.9034C283.779 83.1757 282.73 83.4343 281.56 83.6793C280.389 83.8971 279.218 84.1013 278.048 84.2919C276.877 84.4553 275.815 84.605 274.862 84.7411C272.82 85.0406 271.037 85.517 269.512 86.1705C267.988 86.8239 266.804 87.7087 265.96 88.8249C265.116 89.9139 264.694 91.2752 264.694 92.9087C264.694 95.2773 265.551 97.0878 267.266 98.3402C269.009 99.5653 271.214 100.178 273.882 100.178ZM317.722 111V48.2727H334.588V59.2173H335.241C336.385 55.3241 338.304 52.3838 340.999 50.3963C343.695 48.3816 346.798 47.3743 350.311 47.3743C351.182 47.3743 352.121 47.4287 353.128 47.5376C354.136 47.6465 355.021 47.7963 355.783 47.9869V63.4236C354.966 63.1786 353.836 62.9608 352.393 62.7702C350.95 62.5797 349.63 62.4844 348.432 62.4844C345.873 62.4844 343.586 63.0425 341.571 64.1587C339.584 65.2477 338.005 66.7724 336.834 68.7326C335.691 70.6928 335.119 72.9525 335.119 75.5117V111H317.722ZM360.275 111V100.505L402.012 41.9428H360.193V27.3636H424.227V37.859L382.45 96.4208H424.309V111H360.275ZM468.302 112.143C462.203 112.143 456.772 111.095 452.008 108.999C447.27 106.875 443.527 103.962 440.777 100.26C438.055 96.5297 436.652 92.2281 436.571 87.3548H454.376C454.485 89.3967 455.152 91.1935 456.377 92.7454C457.63 94.27 459.29 95.4543 461.359 96.2983C463.429 97.1423 465.756 97.5643 468.343 97.5643C471.038 97.5643 473.42 97.0878 475.489 96.1349C477.559 95.1821 479.178 93.8616 480.349 92.1737C481.52 90.4857 482.105 88.5391 482.105 86.3338C482.105 84.1013 481.479 82.1275 480.227 80.4123C479.002 78.6699 477.232 77.3086 474.918 76.3285C472.631 75.3484 469.908 74.8583 466.75 74.8583H458.95V61.8718H466.75C469.418 61.8718 471.773 61.409 473.815 60.4833C475.884 59.5576 477.491 58.2781 478.634 56.6445C479.777 54.9838 480.349 53.0508 480.349 50.8455C480.349 48.7492 479.845 46.9115 478.838 45.3324C477.858 43.7261 476.47 42.4737 474.673 41.5753C472.903 40.6768 470.834 40.2276 468.465 40.2276C466.069 40.2276 463.878 40.6632 461.89 41.5344C459.903 42.3784 458.31 43.59 457.112 45.169C455.914 46.7481 455.275 48.5994 455.193 50.723H438.245C438.327 45.9041 439.702 41.657 442.37 37.9815C445.038 34.3061 448.632 31.4338 453.151 29.3647C457.698 27.2683 462.83 26.2202 468.547 26.2202C474.319 26.2202 479.369 27.2683 483.698 29.3647C488.027 31.4611 491.389 34.2925 493.785 37.859C496.208 41.3983 497.406 45.3732 497.379 49.7837C497.406 54.4665 495.949 58.3733 493.009 61.5043C490.096 64.6352 486.298 66.6226 481.615 67.4666V68.12C487.768 68.9096 492.451 71.0468 495.663 74.5316C498.903 77.9892 500.51 82.3181 500.482 87.5181C500.51 92.2826 499.135 96.5161 496.358 100.219C493.608 103.921 489.81 106.835 484.964 108.958C480.118 111.082 474.564 112.143 468.302 112.143Z" fill="white"/>
<ellipse cx="55.7914" cy="62.3229" rx="55.7914" ry="58.319" fill="white"/>
</svg>
